<?xml version="1.0" encoding="utf-8"?>
<!-- Generated by IcoMoon.io -->
<svg version="1.1" xmlns="http://www.w3.org/2000/svg" xmlns:xlink="http://www.w3.org/1999/xlink" width="2016" height="32" viewBox="0 0 2016 32">
<svg id="smantena" width="30" height="32" viewBox="0 0 30 32" x="0" y="0">
<path d="M27.8 23.2l-0.75-0.75-20.3-20.4 0.75-0.75 7.95 8s0 0 0 0l13.1 13.2-0.75 0.75zM16.55 23.9v-2.35c0-1.9-1.65-3.4-3.75-3.4-1.35 0-2.6 0.65-3.3 1.8-4.050-4.25-4.95-10.65-2.3-15.9l18.6 18.7c-2.85 1.45-6.15 1.85-9.3 1.15zM10.15 25.6v-4.050c0-1.3 1.2-2.35 2.65-2.35s2.65 1.050 2.65 2.35v4.050h-5.35zM15.45 26.65v1.050h-5.35v-1.050h5.35zM22.95 28.8c0.9 0 1.6 0.7 1.6 1.6v0.55h-23.5v-0.55c0-0.9 0.7-1.6 1.6-1.6h20.25zM20.35 8.85l-1.9 1.9-1.5-1.5 3.4-0.4zM20.95 9.75l-0.6 2.95-1.2-1.2 1.75-1.75zM22.2 6.25c0.4-0.4 1.1-0.4 1.5 0s0.4 1.1 0 1.5c-0.2 0.2-0.45 0.3-0.75 0.3v0c-0.6 0-1.050-0.5-1.050-1.050 0-0.3 0.1-0.55 0.3-0.75v0zM29.7 22.1l-8.45-8.5 0.95-4.6c0.25 0.1 0.5 0.15 0.75 0.15v0c1.2 0 2.15-0.95 2.2-2.15 0-1.2-0.95-2.15-2.15-2.2-1.2 0-2.15 0.95-2.2 2.15 0 0.25 0 0.5 0.1 0.75l-4.95 0.6-8.050-8.15c-0.1-0.1-0.25-0.15-0.4-0.15s-0.25 0.050-0.35 0.15l-1.5 1.5c-0.2 0.2-0.2 0.55 0 0.75l0.8 0.85c-3.15 5.8-2.15 13 2.5 17.65 0 0 0.1 0.050 0.15 0.1 0 0.2-0.050 0.35-0.050 0.55v6.2h-6.4c-1.45 0-2.65 1.2-2.65 2.65v1.050c0 0.3 0.25 0.55 0.55 0.55h24.55c0.3 0 0.55-0.25 0.55-0.55v-1.050c0-1.45-1.2-2.65-2.65-2.65h-6.4v-2.75c1 0.2 2 0.3 3.050 0.3 2.45 0 4.9-0.6 7.050-1.8l0.8 0.8c0.1 0.1 0.25 0.15 0.4 0.15s0.25-0.050 0.35-0.15l1.5-1.5c0.2-0.2 0.2-0.55 0-0.75z"></path>
</svg>
<svg id="smastronaut" width="32" height="32" viewBox="0 0 32 32" x="64" y="0">
<path fill="#4859a5" d="M29.5 5.7c-0.15 0.1-0.2 0.3-0.15 0.45l0.2 1.1-1-0.55c-0.1 0-0.15-0.050-0.25-0.050s-0.15 0-0.25 0.050l-1 0.55 0.2-1.1c0-0.15 0-0.35-0.15-0.45l-0.8-0.8 1.1-0.15c0.15 0 0.3-0.15 0.4-0.3l0.5-1 0.5 1c0.1 0.15 0.25 0.25 0.4 0.3l1.1 0.15-0.8 0.8zM31.95 4.4c-0.050-0.2-0.25-0.35-0.45-0.35l-1.9-0.3-0.85-1.75c-0.2-0.35-0.8-0.35-0.95 0l-0.85 1.75-1.9 0.3c-0.2 0-0.35 0.15-0.45 0.35-0.050 0.2 0 0.4 0.15 0.55l1.4 1.35-0.35 1.9c0 0.2 0 0.4 0.2 0.5 0.15 0.1 0.4 0.15 0.55 0l1.7-0.9 1.7 0.9c0.1 0 0.15 0.050 0.25 0.050s0.2 0 0.3-0.1c0.15-0.1 0.25-0.3 0.2-0.5l-0.35-1.9 1.4-1.35c0.15-0.15 0.2-0.35 0.15-0.55z"></path>
<path fill="#4859a5" d="M25.050 20.4h1.050v1.050h-1.050v-1.050z"></path>
<path fill="#4859a5" d="M25.050 22.55h1.050v1.050h-1.050v-1.050z"></path>
<path fill="#4859a5" d="M26.15 21.45h1.050v1.050h-1.050v-1.050z"></path>
<path fill="#4859a5" d="M24 21.45h1.050v1.050h-1.050v-1.050z"></path>
<path fill="#4859a5" d="M21.35 26.25h1.050v1.050h-1.050v-1.050z"></path>
<path fill="#4859a5" d="M21.35 28.4h1.050v1.050h-1.050v-1.050z"></path>
<path fill="#4859a5" d="M22.4 27.35h1.050v1.050h-1.050v-1.050z"></path>
<path fill="#4859a5" d="M20.25 27.35h1.050v1.050h-1.050v-1.050z"></path>
<path fill="#4859a5" d="M14.95 24.15h1.050v1.050h-1.050v-1.050z"></path>
<path fill="#4859a5" d="M14.95 26.25h1.050v1.050h-1.050v-1.050z"></path>
<path fill="#4859a5" d="M16 25.2h1.050v1.050h-1.050v-1.050z"></path>
<path fill="#4859a5" d="M13.85 25.2h1.050v1.050h-1.050v-1.050z"></path>
<path fill="#4859a5" d="M4.8 6h1.050v1.050h-1.050v-1.050z"></path>
<path fill="#4859a5" d="M4.8 8.15h1.050v1.050h-1.050v-1.050z"></path>
<path fill="#4859a5" d="M5.85 7.050h1.050v1.050h-1.050v-1.050z"></path>
<path fill="#4859a5" d="M3.75 7.050h1.050v1.050h-1.050v-1.050z"></path>
<path fill="#2f3043" d="M23.75 15.6l-0.85 0.8-0.95-1.25 0.85-0.65c0.15-0.1 0.35-0.15 0.55-0.15s0.35 0.15 0.5 0.3c0.2 0.3 0.2 0.7-0.1 0.95zM20 18.45l-0.3-1.55 1.45-1.1 0.4 0.5 0.55 0.75-2.1 1.4zM16 18.25s0 0 0 0c0 0-0.1 0-0.1 0s-0.050 0-0.1 0c0 0-0.050 0-0.1 0 0 0-0.050 0-0.1 0.050 0 0 0 0 0 0l-4.7 5.15-4.35-4.25 2.85-2.8c0.2-0.2 0.2-0.55 0-0.75-0.1-0.1-0.25-0.15-0.4-0.15v0s-2.2 0-2.2 0v-1.6c0 0 3.15 0 3.15 0 1.25 1.3 3.050 2.1 5 2.1s0.85 0 1.3-0.1c0 0 0.1 0.050 0.15 0.1l2.4 0.95 0.15 0.75 0.2 0.9-3-0.45zM9.15 25.3s0 0 0 0l-1.75 1.75-0.85-0.85 1.75-1.75s0 0 0 0c0 0 0.050-0.1 0.1-0.15 0 0 0 0 0 0s0-0.1 0-0.15c0 0 0 0 0-0.050 0 0 0-0.050 0-0.1 0 0 0-0.050 0-0.1s-0.050-0.1-0.1-0.15c0 0 0 0 0 0v0s0 0 0 0l-1.6-1.6s0 0-0.050 0c0 0-0.050 0-0.1-0.050 0 0-0.050 0-0.1 0 0 0-0.050 0-0.1 0 0 0-0.050 0-0.1 0 0 0-0.050 0-0.1 0 0 0-0.050 0-0.1 0 0 0 0 0-0.050 0l-1.75 1.3-0.9-0.9 2.4-2.4 4.35 4.3-0.95 0.9zM5.7 28.75c-0.25 0.25-0.6 0.25-0.85 0-0.1-0.1-0.2-0.25-0.2-0.4s0.050-0.3 0.2-0.4l0.95-0.95 0.85 0.85-0.95 0.95zM2.45 25c-0.25 0.25-0.6 0.25-0.85 0-0.1-0.1-0.2-0.25-0.2-0.4s0.050-0.3 0.2-0.4l0.95-0.95 0.85 0.85-0.95 0.95zM14.9 10c0 0.45-0.35 0.8-0.8 0.8s-0.8-0.35-0.8-0.8 0.35-0.8 0.8-0.8 0.8 0.35 0.8 0.8zM8.95 9.2c0-3.25 2.65-5.85 5.9-5.85s0.5 0 0.75 0.050l-1.45 4.75s0 0-0.050 0c-1.050 0-1.85 0.85-1.85 1.85s0.85 1.85 1.85 1.85 1.3-0.4 1.6-0.95l3.85 1.75c-1.050 1.45-2.8 2.4-4.75 2.4-3.25 0-5.9-2.65-5.9-5.85zM20.75 9.2c0 0.9-0.2 1.8-0.6 2.55l-4.2-1.9c0-0.55-0.35-1.1-0.8-1.4l1.45-4.85c2.4 0.75 4.1 2.95 4.1 5.6zM5.65 15.8l-1.55 0.8-0.25-0.75-0.2-0.55 2.050-1v1.5zM2.15 17.65c-0.15 0.1-0.35 0.1-0.55 0.050s-0.35-0.2-0.45-0.35c-0.15-0.3-0.050-0.7 0.2-0.9l1.3-0.65 0.3 0.9 0.15 0.4-1 0.55zM24.7 14.050c-0.3-0.4-0.7-0.65-1.2-0.7s-0.95 0.050-1.35 0.35l-1.25 0.95s-1.9 1.4-1.9 1.4l-1.35-0.55c2.4-1.1 4.1-3.5 4.1-6.3s-3.1-6.95-6.9-6.95-6.95 3.1-6.95 6.95 0.4 2.65 1.1 3.75h-2.75s0 0 0 0c0 0 0 0 0 0-0.050 0-0.1 0-0.15 0 0 0 0 0 0 0s0 0 0 0l-3.25 1.6s0 0 0 0l-1.9 0.9s0 0-0.050 0c-0.75 0.5-1 1.5-0.6 2.3 0.2 0.45 0.6 0.75 1.050 0.9 0.2 0.050 0.35 0.1 0.55 0.1 0.3 0 0.6-0.050 0.85-0.2l1.4-0.75 2.25-1.15h1.35s-5.45 5.4-5.45 5.4c0 0 0 0 0 0l-1.35 1.35c-0.3 0.3-0.5 0.75-0.5 1.2s0.15 0.85 0.5 1.2c0.3 0.3 0.75 0.5 1.2 0.5s0.85-0.15 1.2-0.5l1.3-1.3 1.75-1.3 0.9 0.9-1.75 1.75s0 0 0 0l-1.35 1.35c-0.3 0.3-0.5 0.75-0.5 1.2s0.15 0.85 0.5 1.2c0.3 0.3 0.75 0.5 1.2 0.5s0.85-0.15 1.2-0.5l3.5-3.5s0 0 0 0l1-1s0 0 0 0l5.15-5.65 3.45 0.5c0 0 0.050 0 0.1 0s0.15 0 0.2 0c0 0 0 0 0 0s0 0 0.050 0l3.2-2.15s0 0 0 0c0 0 0 0 0 0l1.25-1.2c0.65-0.6 0.75-1.65 0.2-2.35z"></path>
<path fill="#2f3043" d="M11.1 20.15l-1.4-1.4 1.4-1.4 1.4 1.4-1.4 1.4zM13.6 18.4l-2.15-2.15c-0.2-0.2-0.55-0.2-0.75 0l-2.15 2.15c-0.1 0.1-0.15 0.25-0.15 0.4s0.050 0.3 0.15 0.4l2.15 2.15c0.1 0.1 0.25 0.15 0.4 0.15s0.25-0.050 0.4-0.15l2.15-2.15c0.1-0.1 0.15-0.25 0.15-0.4s-0.050-0.3-0.15-0.4z"></path>
<path fill="#2f3043" d="M17.15 4.95l-0.25 1.050c0.050 0 1.75 0.45 1.75 2.15h1.050c0-2-1.65-2.95-2.55-3.2z"></path>
<path fill="#2f3043" d="M18.65 9.2h1.050v1.050h-1.050v-1.050z"></path>
</svg>
<svg id="smclock" width="31" height="32" viewBox="0 0 31 32" x="128" y="0">
<path fill="#2f3043" d="M17.4 29.55l2.2-1.95 0.6 2.85-2.8-0.9zM15.3 14.65c0.35 0 0.65 0.3 0.65 0.65s-0.3 0.65-0.65 0.65-0.65-0.3-0.65-0.65 0.3-0.65 0.65-0.65zM30.6 15.3c0-8.45-6.85-15.3-15.3-15.3s-15.3 6.85-15.3 15.3c0 6.65 4.3 12.55 10.65 14.6 0.050 0 0.1 0 0.2 0s0.25 0 0.35-0.1c0.15-0.1 0.25-0.2 0.3-0.35l3.85-12.25c1.050 0 1.9-0.85 1.9-1.9s-0.85-1.9-1.9-1.9c-0.3 0-0.55 0.050-0.8 0.2l-5.1-5.1c-0.25-0.25-0.65-0.25-0.9 0s-0.25 0.65 0 0.9l5.1 5.1c-0.4 0.8-0.15 1.75 0.55 2.3l-3.7 11.65c-7.35-2.65-11.050-10.75-8.4-18s10.75-11 18.050-8.35 11 10.75 8.3 18.050c-1.3 3.55-4 6.45-7.45 7.95l-0.4-1.85c-0.050-0.35-0.4-0.55-0.75-0.5-0.1 0-0.2 0.050-0.3 0.15l-3.85 3.45c-0.25 0.25-0.3 0.65-0.050 0.9 0.1 0.1 0.15 0.15 0.3 0.2l4.9 1.55c0.35 0.1 0.7-0.1 0.8-0.4 0-0.1 0-0.2 0-0.35l-0.4-1.85c5.65-2.4 9.35-7.95 9.35-14.1z"></path>
<path fill="#4859a5" d="M14.65 3.2v1.3c0 0.35 0.3 0.65 0.65 0.65s0.65-0.3 0.65-0.65v-1.3c0-0.35-0.3-0.65-0.65-0.65s-0.65 0.3-0.65 0.65z"></path>
<path fill="#4859a5" d="M3.2 14.65c-0.35 0-0.65 0.3-0.65 0.65s0.3 0.65 0.65 0.65h1.3c0.35 0 0.65-0.3 0.65-0.65s-0.3-0.65-0.65-0.65h-1.3z"></path>
<path fill="#4859a5" d="M27.4 15.95c0.35 0 0.65-0.3 0.65-0.65s-0.3-0.65-0.65-0.65h-1.3c-0.35 0-0.65 0.3-0.65 0.65s0.3 0.65 0.65 0.65h1.3z"></path>
</svg>
<svg id="smcomputer" width="32" height="32" viewBox="0 0 32 32" x="192" y="0">
<path fill="#4859a5" d="M14.95 14.95h1.050v4.8h-1.050v-4.8z"></path>
<path fill="#4859a5" d="M19.2 17.1h1.050v2.65h-1.050v-2.65z"></path>
<path fill="#4859a5" d="M10.65 18.7h1.050v1.050h-1.050v-1.050z"></path>
<path fill="#4859a5" d="M7.45 18.15h1.050v1.6h-1.050v-1.6z"></path>
<path fill="#2f3043" d="M1.050 24.55c0-0.3 0.25-0.55 0.55-0.55h9.050v0.55c0 0.9 0.7 1.6 1.6 1.6h4.25c0.9 0 1.6-0.7 1.6-1.6v-0.55h9.050c0.3 0 0.55 0.25 0.55 0.55v2.15c0 0.3-0.25 0.55-0.55 0.55h-25.55c-0.3 0-0.55-0.25-0.55-0.55v-2.15zM11.75 24.050h5.35v0.55c0 0.3-0.25 0.55-0.55 0.55h-4.25c-0.3 0-0.55-0.25-0.55-0.55v-0.55zM8.55 15.5c0 0.3-0.25 0.55-0.55 0.55s-0.55-0.25-0.55-0.55 0.25-0.55 0.55-0.55 0.55 0.25 0.55 0.55zM8 13.9c-0.7 0-1.35 0.5-1.55 1.15s0.1 1.45 0.75 1.8c0.6 0.35 1.4 0.3 1.95-0.25l1.85 0.95c0.2 0.1 0.5 0.050 0.65-0.1l3.95-4.45 3.85 2.9c0.2 0.15 0.5 0.15 0.7 0l3.35-3.2v8.15h-18.15v-12.3h18.1v2.65l-3.75 3.55-3.9-2.95c-0.2-0.15-0.55-0.15-0.7 0.050l-4 4.5-1.5-0.75c0-0.050 0-0.15 0-0.2 0-0.9-0.7-1.6-1.6-1.6zM3.2 6.95c0-0.3 0.25-0.55 0.55-0.55h21.3c0.3 0 0.55 0.25 0.55 0.55v2.25l-1.050 1v-2.2c0-0.3-0.25-0.55-0.55-0.55h-19.2c-0.3 0-0.55 0.25-0.55 0.55v13.35c0 0.3 0.25 0.55 0.55 0.55h19.2c0.3 0 0.55-0.25 0.55-0.55v-9.65l1.050-1v12.3h-22.4v-16.050zM30.4 4.85c0.3 0 0.55 0.25 0.55 0.55s-0.25 0.55-0.55 0.55-0.55-0.25-0.55-0.55 0.25-0.55 0.55-0.55zM1.6 28.3h25.6c0.9 0 1.6-0.7 1.6-1.6v-2.15c0-0.9-0.7-1.6-1.6-1.6h-0.55v-13.3l3.050-2.85c0.7 0.35 1.55 0.15 2-0.5s0.4-1.5-0.15-2.050c-0.55-0.55-1.4-0.65-2.050-0.2s-0.85 1.3-0.55 2l-2.3 2.15v-1.25c0-0.9-0.7-1.6-1.6-1.6h-21.3c-0.9 0-1.6 0.7-1.6 1.6v16h-0.55c-0.9 0-1.6 0.7-1.6 1.6v2.15c0 0.9 0.7 1.6 1.6 1.6z"></path>
</svg>
<svg id="smfacebook" width="32" height="32" viewBox="0 0 32 32" x="256" y="0">
<path d="M21.067 5.333h2.933v-5.067c-0.533 0-2.267-0.267-4.267-0.267-4.133 0-7.067 2.667-7.067 7.467v4.533h-4.667v5.733h4.667v14.267h5.733v-14.267h4.4l0.667-5.733h-5.2v-3.867c0-1.6 0.4-2.8 2.8-2.8z"></path>
</svg>
<svg id="sminstagram" width="32" height="32" viewBox="0 0 32 32" x="320" y="0">
<path d="M29.067 22.533c0 1.6-0.267 2.4-0.533 2.933-0.533 1.333-1.6 2.533-3.067 3.067-0.533 0.267-1.467 0.533-2.933 0.533-1.733 0-2.133 0-6.4 0s-4.8 0-6.4 0c-1.6 0-2.4-0.267-2.933-0.533-0.667-0.267-1.333-0.667-1.867-1.2s-0.933-1.2-1.2-1.867c-0.267-0.533-0.533-1.467-0.533-2.933 0-1.733 0-2.133 0-6.4s0-4.8 0-6.4c0-1.6 0.267-2.4 0.533-2.933 0.267-0.667 0.667-1.333 1.2-1.867s1.2-0.933 1.867-1.2c0.533-0.267 1.467-0.533 2.933-0.533 1.733 0 2.133 0 6.4 0s4.8 0 6.4 0c1.6 0 2.4 0.267 2.933 0.533 0.667 0.267 1.333 0.667 1.867 1.2s0.933 1.2 1.2 1.867c0.267 0.533 0.533 1.467 0.533 2.933 0 1.733 0 2.133 0 6.4s0 4.8 0 6.4zM31.867 9.467c0-1.733-0.4-2.933-0.8-3.867-0.4-1.067-1.067-2-1.867-2.8s-1.733-1.467-2.8-1.867c-1.067-0.4-2.133-0.667-3.867-0.8-1.733 0-2.267 0-6.667 0s-4.933 0-6.533 0c-1.733 0-2.933 0.4-3.867 0.8-1.067 0.4-2 1.067-2.8 1.867s-1.467 1.733-1.867 2.8c-0.4 1.067-0.667 2.133-0.8 3.867 0 1.733 0 2.267 0 6.667s0 4.933 0 6.533c0 1.733 0.4 2.933 0.8 3.867 0.4 1.067 1.067 2 1.867 2.8s1.733 1.467 2.8 1.867c1.067 0.4 2.133 0.667 3.867 0.8 1.733 0 2.267 0 6.533 0s4.933 0 6.533 0c1.733 0 2.933-0.4 3.867-0.8 2.133-0.8 3.867-2.533 4.667-4.667 0.4-1.067 0.667-2.133 0.8-3.867 0-1.733 0-2.267 0-6.533s0-4.933 0-6.533z"></path>
<path d="M16 21.333c-2.933 0-5.333-2.4-5.333-5.333s2.4-5.333 5.333-5.333 5.333 2.4 5.333 5.333-2.4 5.333-5.333 5.333zM16 7.733c-4.533 0-8.267 3.733-8.267 8.267s3.733 8.267 8.267 8.267 8.267-3.733 8.267-8.267-3.733-8.267-8.267-8.267z"></path>
<path d="M26.533 7.467c0 1.067-0.8 1.867-1.867 1.867s-1.867-0.8-1.867-1.867 0.8-1.867 1.867-1.867 1.867 0.8 1.867 1.867z"></path>
</svg>
<svg id="smlinkedin" width="32" height="32" viewBox="0 0 32 32" x="384" y="0">
<path d="M32 32v0s0 0 0 0v-11.733c0-5.733-1.2-10.133-8-10.133s-5.333 1.733-6.267 3.467v0-2.933h-6.4v21.333h6.667v-10.533c0-2.8 0.533-5.467 4-5.467s3.467 3.2 3.467 5.6v10.4h6.667z"></path>
<path d="M0.533 10.667h6.667v21.333h-6.667v-21.333z"></path>
<path d="M3.867 0c-2.133 0-3.867 1.733-3.867 3.867s1.733 3.867 3.867 3.867 3.867-1.733 3.867-3.867c0-2.133-1.733-3.867-3.867-3.867z"></path>
</svg>
<svg id="smtwitter" width="32" height="32" viewBox="0 0 32 32" x="448" y="0">
<path d="M32 5.733c-1.2 0.533-2.4 0.933-3.733 1.067 1.333-0.8 2.4-2.133 2.933-3.6-1.333 0.8-2.667 1.333-4.133 1.6-1.2-1.333-2.933-2.133-4.8-2.133-3.6 0-6.533 2.933-6.533 6.533s0 1.067 0.133 1.467c-5.6-0.267-10.4-2.8-13.6-6.8-0.533 0.933-0.933 2.133-0.933 3.333 0 2.267 1.2 4.267 2.933 5.467-1.067 0-2.133-0.267-2.933-0.8v0c0 3.2 2.267 5.867 5.2 6.533-0.533 0.133-1.067 0.267-1.733 0.267s-0.8 0-1.2 0c0.8 2.533 3.2 4.533 6.133 4.533-2.267 1.733-5.067 2.8-8.133 2.8s-1.067 0-1.6 0c2.933 1.867 6.4 2.933 10 2.933 12.133 0 18.667-10 18.667-18.667s0-0.533 0-0.8c1.333-0.933 2.4-2.133 3.333-3.467z"></path>
</svg>
</svg>
